<svg width="65" height="17" viewBox="0 0 65 17" fill="none" xmlns="http://www.w3.org/2000/svg">
<path d="M21.6182 8.81879C23.3273 8.81879 24.038 10.1496 24.038 10.1496V8.96987H25.9361V16.698H24.038V15.5184C24.038 15.5184 23.3273 16.8493 21.6182 16.8493C19.327 16.8493 17.7542 15.0496 17.7542 12.8339C17.7542 10.6184 19.327 8.81879 21.6182 8.81879ZM21.8451 15.269C23.191 15.269 24.0379 14.1801 24.0379 12.834C24.0379 11.4881 23.191 10.3991 21.8451 10.3991C20.499 10.3991 19.6521 11.488 19.6521 12.834C19.6522 14.18 20.4991 15.269 21.8451 15.269Z" fill="#4169E1"/>
<path d="M32.3944 10.4975C32.3944 10.4975 31.8803 10.3992 31.3434 10.3992C30.0428 10.4218 29.1806 11.3292 29.1806 12.8946V16.6981H27.2827V8.96999H29.1806V10.1875C29.1806 10.1875 29.6722 8.81891 31.4266 8.81891C31.9558 8.81891 32.3944 8.97006 32.3944 8.97006V10.4975Z" fill="#4169E1"/>
<path d="M38.5502 10.4975C38.5502 10.4975 38.036 10.3992 37.4991 10.3992C36.1985 10.4218 35.3365 11.3292 35.3365 12.8946V16.6981H33.4385V8.96999H35.3365V10.1875C35.3365 10.1875 35.828 8.81891 37.5824 8.81891C38.1117 8.81891 38.5503 8.97006 38.5503 8.97006V10.4975H38.5502Z" fill="#4169E1"/>
<path d="M42.3997 8.81879C44.1088 8.81879 44.8195 10.1496 44.8195 10.1496V8.96987H46.7176V16.698H44.8195V15.5184C44.8195 15.5184 44.1088 16.8493 42.3997 16.8493C40.1085 16.8493 38.5356 15.0496 38.5356 12.8339C38.5356 10.6184 40.1085 8.81879 42.3997 8.81879ZM42.6267 15.269C43.9726 15.269 44.8195 14.1801 44.8195 12.834C44.8195 11.4881 43.9726 10.3991 42.6267 10.3991C41.2806 10.3991 40.4337 11.488 40.4337 12.834C40.4337 14.18 41.2806 15.269 42.6267 15.269Z" fill="#4169E1"/>
<path d="M48.1738 6.70898H50.0719V8.96985H52.416V10.5504H50.0719V13.2877C50.0719 14.5657 50.2836 15.269 51.3347 15.269C51.811 15.269 52.4159 15.1858 52.4159 15.1858V16.6981C52.4159 16.6981 51.8413 16.8493 50.9566 16.8493C48.8015 16.8493 48.1738 15.5714 48.1738 13.2877V6.70898Z" fill="#4169E1"/>
<path d="M53.6265 8.96997H55.5245V16.6981H53.6265V8.96997Z" fill="#4169E1"/>
<path d="M62.9055 8.96997H65.0001L61.6351 16.6981H59.7143L56.3494 8.96997H58.444L60.6748 14.2935L62.9055 8.96997Z" fill="#4169E1"/>
<path d="M21.2959 5.13357C20.4847 5.12283 19.7905 4.55813 19.6079 3.76037C19.1622 1.81378 18.6406 0.514476 17.5461 0.500152L17.5266 0.5C16.4586 0.5 16.0945 1.783 15.6612 3.74033C15.5333 4.31799 15.2204 6.0335 14.8582 8.01994C14.3872 10.6024 13.8029 12.7712 13.4526 14.4028C13.1013 12.81 12.5608 10.8722 12.1252 8.47584C11.8379 6.89541 11.6111 5.64715 11.5153 5.21707C11.1577 3.61089 10.8267 2.47288 9.82057 2.4597L9.80145 2.45954C8.82518 2.45954 8.41415 3.56822 8.01348 4.9076C7.89432 5.30606 7.36551 7.392 7.02419 8.75819C6.52927 10.7388 5.91505 13.1968 5.56702 14.3522C5.48931 14.1335 5.41351 13.8798 5.34143 13.5972C4.93535 12.0058 3.50607 10.8793 1.86576 10.8578L0.0248371 10.8335L0 12.7167L1.84084 12.7409C2.63152 12.7514 3.32056 13.295 3.51644 14.0629C3.82621 15.2768 4.38817 16.8322 5.68389 16.8492L5.70431 16.8493C6.96324 16.8493 7.402 15.3075 8.59913 10.2424C8.85756 9.14873 9.4119 6.88703 9.71559 5.80288C9.98407 7.06157 10.1973 8.77221 10.5057 10.1243C11.3814 13.9655 11.9124 16.8492 13.4768 16.8492L13.4972 16.8492C15.0672 16.8492 15.5981 13.4657 16.4804 9.64784C16.9088 7.7945 17.2429 5.21532 17.6274 3.59215C17.6758 3.77454 17.7244 3.97217 17.7722 4.1807C18.1495 5.82825 19.5884 6.99438 21.2713 7.01655L23.4313 7.04489L23.456 5.16184L21.2959 5.13357Z" fill="#4169E1"/>
</svg>
