<svg width="36" height="35" viewBox="0 0 36 35" fill="none" xmlns="http://www.w3.org/2000/svg">
<path d="M30.0312 24.8905C30.0312 26.2468 28.9506 27.3438 27.6359 27.3438H8.36406C7.04063 27.3438 5.96875 26.2435 5.96875 24.8905V14.9516C5.96875 14.3435 6.39531 14.1062 6.90391 14.4091L16.507 20.1382C17.3623 20.649 18.6398 20.649 19.493 20.1382L29.0961 14.4091C29.6123 14.1029 30.0312 14.3402 30.0312 14.9505V24.8894V24.8905Z" fill="#2E2E2E"/>
<path d="M30.0312 10.1095C30.0312 8.75656 28.9594 7.65625 27.6359 7.65625H8.36406C7.04938 7.65625 5.96875 8.75438 5.96875 10.1095V10.6181C5.96875 11.2241 6.38984 11.9656 6.90609 12.2741L17.417 18.5445C17.7091 18.7195 18.292 18.7195 18.5841 18.5445L29.095 12.2741C29.6123 11.9645 30.0312 11.2241 30.0312 10.6181V10.1095V10.1095Z" fill="#2E2E2E"/>
</svg>
