<svg width="238" height="18" viewBox="0 0 238 18" fill="none" xmlns="http://www.w3.org/2000/svg">
<g clip-path="url(#clip0_1341_35960)">
<path d="M14.8736 17.4193H5.63641V17.1813C6.29803 17.0543 6.77303 16.9511 7.06142 16.8718C7.36678 16.7765 7.6637 16.6099 7.95206 16.3718C8.25742 16.1179 8.461 15.7767 8.56278 15.3482C8.68158 14.9038 8.74941 14.3007 8.76636 13.5389C8.80031 12.6342 8.81725 11.1344 8.81725 9.03945C8.81725 6.40489 8.79181 3.75442 8.74091 1.0881H8.23197C6.5016 1.0881 5.05113 1.43726 3.88057 2.13558C2.72698 2.81803 1.98902 3.84171 1.66669 5.20661H1.36133L1.71759 0.80242H18.6143L18.9706 5.20661H18.6652C17.9697 2.46093 15.7813 1.0881 12.0999 1.0881H11.591C11.5401 3.75442 11.5146 6.4287 11.5146 9.11087C11.5146 11.4915 11.5316 13.0231 11.5655 13.7055C11.5995 14.2769 11.6843 14.7689 11.82 15.1815C11.9557 15.5783 12.0999 15.8878 12.2526 16.11C12.4223 16.3322 12.6682 16.5226 12.9905 16.6813C13.3299 16.84 13.6098 16.9432 13.8303 16.9908C14.0678 17.0384 14.4156 17.1019 14.8736 17.1813V17.4193ZM24.7983 17.1813V17.4193H18.971V17.1813C19.6835 17.1019 20.1754 16.8956 20.4469 16.5623C20.7353 16.2131 20.8795 15.483 20.8795 14.3721V2.77836C20.8795 2.57203 20.8625 2.38952 20.8286 2.23081C20.7947 2.05622 20.7438 1.91339 20.6759 1.80229C20.625 1.6912 20.5657 1.58803 20.4978 1.49281C20.4299 1.39758 20.3451 1.32616 20.2433 1.27855C20.1416 1.21507 20.0567 1.16745 19.9889 1.13571C19.921 1.10397 19.8277 1.08016 19.709 1.06429C19.5902 1.03255 19.5054 1.01668 19.4545 1.01668C19.4205 1.0008 19.3527 0.992872 19.2509 0.992872H19.0982V0.778614L22.8389 0.350098H22.9407V8.4919C23.772 7.30158 25.0358 6.70642 26.7323 6.70642C27.7841 6.70642 28.6663 6.93653 29.3788 7.39681C30.1082 7.84118 30.473 8.53156 30.473 9.46797V15.1101C30.473 15.3323 30.4814 15.5307 30.4984 15.7053C30.5154 15.8799 30.5493 16.0306 30.6002 16.1576C30.6681 16.2846 30.719 16.3956 30.7529 16.4909C30.7868 16.5861 30.8547 16.6734 30.9565 16.7527C31.0752 16.8162 31.1516 16.8718 31.1855 16.9194C31.2364 16.967 31.3297 17.0067 31.4654 17.0384C31.6181 17.0702 31.7114 17.094 31.7453 17.1098C31.7792 17.1257 31.881 17.1495 32.0507 17.1813C32.2203 17.1971 32.3136 17.2051 32.3306 17.2051V17.4193H26.4015V17.1575C26.7238 17.1257 26.9528 17.094 27.0886 17.0622C27.2412 17.0305 27.4363 16.959 27.6738 16.848C27.9283 16.721 28.1064 16.5067 28.2082 16.2052C28.327 15.9037 28.3864 15.5228 28.3864 15.0625C28.3864 13.1421 28.3779 11.4677 28.3609 10.0393C28.3439 9.08707 28.1488 8.37287 27.7756 7.89674C27.4024 7.42061 26.7916 7.18255 25.9435 7.18255C25.3157 7.18255 24.7389 7.373 24.2131 7.7539C23.7041 8.11896 23.3563 8.68235 23.1697 9.44416C22.9831 10.2218 22.8898 11.2455 22.8898 12.5152C22.8898 13.3722 22.9068 14.3403 22.9407 15.4196C22.9407 15.8639 23.034 16.221 23.2206 16.4909C23.4242 16.7448 23.6362 16.9114 23.8568 16.9908C24.0773 17.0543 24.3912 17.1178 24.7983 17.1813ZM43.3938 14.7292L43.6992 14.8006C43.6313 15.5307 43.2157 16.2131 42.4523 16.848C41.6889 17.4669 40.6201 17.7764 39.246 17.7764C37.3629 17.7764 35.8955 17.2765 34.8437 16.2766C33.8088 15.2767 33.2914 13.9912 33.2914 12.42C33.2914 10.8805 33.8003 9.54734 34.8182 8.42048C35.8361 7.29363 37.2527 6.73023 39.0678 6.73023C40.442 6.73023 41.5278 7.09528 42.3251 7.82532C43.1394 8.55537 43.589 9.44416 43.6737 10.4916H35.8106C35.7428 10.936 35.7089 11.4836 35.7089 12.1343C35.7089 13.0548 35.8446 13.8563 36.116 14.5387C36.4044 15.2212 36.7776 15.737 37.2357 16.0862C37.6937 16.4195 38.1433 16.6655 38.5844 16.8242C39.0255 16.967 39.475 17.0384 39.933 17.0384C40.917 17.0384 41.6974 16.8242 42.2742 16.3956C42.8679 15.9513 43.2411 15.3958 43.3938 14.7292ZM35.8615 10.1107H41.5107C41.4769 9.28547 41.2308 8.57128 40.7728 7.96816C40.3318 7.34919 39.7295 7.03971 38.9661 7.03971C37.3205 7.03971 36.2857 8.06339 35.8615 10.1107ZM71.8942 17.4193H63.4967V17.1813C63.5476 17.1654 63.7003 17.1416 63.9547 17.1098C64.226 17.0781 64.3954 17.0543 64.4637 17.0384C64.5313 17.0226 64.6672 16.9908 64.8708 16.9432C65.0912 16.8797 65.2271 16.8242 65.278 16.7765C65.3456 16.7131 65.4561 16.6337 65.6088 16.5385C65.7615 16.4274 65.8632 16.3084 65.9141 16.1814C65.965 16.0385 66.024 15.8799 66.0923 15.7053C66.1767 15.5148 66.2363 15.3005 66.2704 15.0625C66.3039 14.8086 66.3213 14.5308 66.3213 14.2293C66.3722 12.1819 66.3976 10.4758 66.3976 9.11087H57.033C57.033 9.85683 57.033 10.8249 57.033 12.0153C57.0499 13.2056 57.0584 13.9356 57.0584 14.2055C57.0584 14.7927 57.1008 15.2688 57.1857 15.6338C57.2875 15.9989 57.4741 16.2846 57.7455 16.4909C58.0169 16.6813 58.2459 16.8083 58.4326 16.8718C58.6361 16.9352 58.9755 17.0146 59.4504 17.1098C59.6031 17.1416 59.7134 17.1654 59.7812 17.1813V17.4193H51.6128V17.1813C52.2744 17.0543 52.7325 16.9511 52.9869 16.8718C53.2414 16.7924 53.4874 16.6337 53.7249 16.3956C53.9624 16.1417 54.1066 15.8322 54.1575 15.4672C54.2253 15.1021 54.2678 14.5546 54.2847 13.8245C54.3356 11.063 54.3611 9.46797 54.3611 9.03945C54.3611 7.24601 54.3526 5.91285 54.3356 5.03997C54.3187 3.89726 54.2338 3.0799 54.0811 2.5879C53.9454 2.08003 53.7079 1.73087 53.3686 1.54042C53.0463 1.34997 52.4695 1.17539 51.6382 1.01668V0.80242H59.7812V1.01668C59.7304 1.03255 59.6031 1.05635 59.3995 1.0881C59.2129 1.11984 59.0772 1.15158 58.9924 1.18332C58.9246 1.19919 58.7973 1.23887 58.6107 1.30236C58.4241 1.34997 58.2799 1.40552 58.1781 1.469C58.0932 1.51661 57.983 1.59596 57.8473 1.70707C57.7115 1.80229 57.6013 1.91339 57.5165 2.04036C57.4486 2.16733 57.3807 2.3181 57.3129 2.49268C57.2451 2.66726 57.2026 2.86564 57.1857 3.08784C57.0839 4.18294 57.033 6.02399 57.033 8.61094H66.3976C66.3976 6.56358 66.3467 4.73842 66.2449 3.13545C66.2276 2.92913 66.1941 2.73868 66.1432 2.5641C66.109 2.38952 66.0414 2.23874 65.9396 2.11178C65.8546 1.98481 65.7782 1.87371 65.7106 1.77848C65.6597 1.68326 65.5579 1.59596 65.4052 1.51661C65.2525 1.43726 65.142 1.38171 65.0744 1.34997C65.0061 1.30236 64.8789 1.25474 64.6927 1.20713C64.5059 1.15952 64.3873 1.13571 64.3364 1.13571C64.3023 1.11984 64.1751 1.09603 63.9547 1.06429L63.6494 1.01668V0.80242H71.8687V1.01668C70.664 1.20713 69.9174 1.52455 69.6294 1.96894C69.3575 2.41332 69.2049 3.42113 69.1713 4.99236C69.1204 6.57943 69.095 7.9285 69.095 9.03945C69.095 9.67427 69.1031 10.5393 69.1205 11.6344C69.1372 12.7136 69.1459 13.3643 69.1459 13.5865C69.1459 14.2055 69.1794 14.7133 69.2477 15.1101C69.3321 15.5069 69.4171 15.8243 69.5022 16.0624C69.6039 16.3004 69.7901 16.4988 70.062 16.6575C70.35 16.8004 70.5964 16.9035 70.7999 16.967C71.0203 17.0146 71.3852 17.086 71.8942 17.1813V17.4193ZM79.1453 11.3487C78.7214 11.809 77.8643 12.3327 76.5751 12.9199C75.3196 13.523 74.6921 14.3324 74.6921 15.3482C74.6921 15.9037 74.8789 16.348 75.2519 16.6813C75.6249 17.0146 76.083 17.1813 76.626 17.1813C78.2037 17.1813 79.0348 16.1576 79.1198 14.1102C79.1366 13.5865 79.1453 12.666 79.1453 11.3487ZM83.7257 16.3242L83.9293 16.4195C83.8784 16.7686 83.6239 17.0781 83.1659 17.3479C82.7079 17.6177 82.1139 17.7526 81.3846 17.7526C80.6553 17.7526 80.0955 17.6256 79.7051 17.3717C79.3147 17.1019 79.1031 16.7607 79.0689 16.348C78.1361 17.3003 77.0245 17.7764 75.7354 17.7764C74.7008 17.7764 73.8945 17.5384 73.3179 17.0622C72.7581 16.5861 72.4782 15.9513 72.4782 15.1577C72.4782 14.4911 72.7072 13.9198 73.1653 13.4436C73.6233 12.9517 74.2508 12.6104 75.0483 12.42C75.286 12.3565 75.6336 12.2851 76.0917 12.2057C76.5497 12.1263 76.9482 12.047 77.2877 11.9676C77.6272 11.8883 77.9152 11.7851 78.1529 11.6582C78.5259 11.4677 78.7803 11.2296 78.9163 10.944C79.0689 10.6583 79.1453 10.2298 79.1453 9.65842C79.1453 8.92837 78.9585 8.30941 78.5855 7.80152C78.2292 7.29363 77.7203 7.03971 77.0586 7.03971C76.4138 7.03971 75.9477 7.21431 75.6591 7.56345C75.4896 7.73805 75.3115 8.111 75.1247 8.68236C74.972 9.23786 74.6325 9.51558 74.1068 9.51558C73.8523 9.51558 73.632 9.43621 73.4452 9.27752C73.2584 9.10292 73.1653 8.87281 73.1653 8.58713C73.1653 8.09515 73.4961 7.66663 74.1577 7.30158C74.8193 6.92068 75.7776 6.73023 77.0332 6.73023C79.8324 6.73023 81.2319 7.56345 81.2319 9.2299V14.6816C81.2319 15.618 81.325 16.2608 81.5119 16.6099C81.7154 16.9432 82.0717 17.1098 82.5806 17.1098C83.1405 17.1098 83.5222 16.848 83.7257 16.3242ZM89.8373 17.4193H83.9846V17.1813C84.7138 17.1019 85.206 16.9352 85.4605 16.6813C85.7317 16.4115 85.8676 15.8163 85.8676 14.8958V10.206C85.8676 8.30145 85.3674 7.34919 84.3663 7.34919H83.8828V7.11113L87.5217 6.58739H87.598L87.9288 8.77758C88.6922 7.41266 89.7523 6.73023 91.1097 6.73023C91.7545 6.73023 92.2293 6.86511 92.5347 7.13494C92.8401 7.38885 92.9928 7.65072 92.9928 7.92055C92.9928 8.19037 92.9077 8.42048 92.7383 8.61094C92.5856 8.80139 92.3653 8.89661 92.0767 8.89661C91.924 8.89661 91.7967 8.88076 91.695 8.849C91.5932 8.81724 91.4827 8.75378 91.3642 8.65855C91.2624 8.56332 91.1947 8.49986 91.1606 8.4681C91.1438 8.43634 91.0755 8.34111 90.957 8.18242C90.6007 7.72214 90.2612 7.49203 89.9391 7.49203C89.532 7.49203 89.167 7.67453 88.8449 8.03958C88.5228 8.38872 88.2851 8.83315 88.1324 9.37274C87.963 10.0869 87.8779 11.1344 87.8779 12.5152C87.8779 13.3405 87.8947 14.2927 87.9288 15.372C87.9456 16.0544 88.1237 16.5226 88.4632 16.7765C88.8195 17.0146 89.2775 17.1495 89.8373 17.1813V17.4193ZM99.3216 17.6812H98.889C98.0405 15.6338 96.8358 12.8802 95.2755 9.42036C94.8684 8.51571 94.5121 7.94436 94.2068 7.70629C93.9014 7.45238 93.4855 7.30158 92.9599 7.25397V7.03971H98.8126V7.25397C97.6756 7.36505 97.1077 7.67453 97.1077 8.18242C97.1077 8.38872 97.3026 8.98388 97.693 9.9679C97.981 10.6503 98.7444 12.3485 99.9832 15.0625C100.848 13.1738 101.51 11.6502 101.968 10.4916C102.358 9.52354 102.553 8.83315 102.553 8.42048C102.553 7.83328 102.036 7.44442 101.001 7.25397V7.03971H105.429V7.25397C105.055 7.34919 104.775 7.43647 104.589 7.51584C104.402 7.5793 104.148 7.76976 103.826 8.08719C103.52 8.40463 103.24 8.849 102.986 9.42036C101.069 13.6897 99.8473 16.4433 99.3216 17.6812ZM111.973 11.3487C111.549 11.809 110.692 12.3327 109.403 12.9199C108.147 13.523 107.52 14.3324 107.52 15.3482C107.52 15.9037 107.706 16.348 108.08 16.6813C108.453 17.0146 108.911 17.1813 109.454 17.1813C111.031 17.1813 111.863 16.1576 111.948 14.1102C111.964 13.5865 111.973 12.666 111.973 11.3487ZM116.553 16.3242L116.757 16.4195C116.706 16.7686 116.452 17.0781 115.994 17.3479C115.536 17.6177 114.942 17.7526 114.212 17.7526C113.482 17.7526 112.923 17.6256 112.533 17.3717C112.142 17.1019 111.93 16.7607 111.897 16.348C110.963 17.3003 109.852 17.7764 108.563 17.7764C107.528 17.7764 106.722 17.5384 106.146 17.0622C105.586 16.5861 105.306 15.9513 105.306 15.1577C105.306 14.4911 105.535 13.9198 105.993 13.4436C106.451 12.9517 107.079 12.6104 107.876 12.42C108.113 12.3565 108.461 12.2851 108.919 12.2057C109.377 12.1263 109.776 12.047 110.115 11.9676C110.454 11.8883 110.743 11.7851 110.981 11.6582C111.354 11.4677 111.608 11.2296 111.744 10.944C111.897 10.6583 111.973 10.2298 111.973 9.65842C111.973 8.92837 111.786 8.30941 111.413 7.80152C111.057 7.29363 110.548 7.03971 109.886 7.03971C109.242 7.03971 108.775 7.21431 108.487 7.56345C108.317 7.73805 108.139 8.111 107.952 8.68236C107.8 9.23786 107.46 9.51558 106.935 9.51558C106.68 9.51558 106.459 9.43621 106.273 9.27752C106.086 9.10292 105.993 8.87281 105.993 8.58713C105.993 8.09515 106.324 7.66663 106.985 7.30158C107.647 6.92068 108.605 6.73023 109.861 6.73023C112.66 6.73023 114.06 7.56345 114.06 9.2299V14.6816C114.06 15.618 114.153 16.2608 114.34 16.6099C114.543 16.9432 114.899 17.1098 115.408 17.1098C115.968 17.1098 116.35 16.848 116.553 16.3242ZM122.665 17.4193H116.812V17.1813C117.542 17.1019 118.034 16.9352 118.288 16.6813C118.559 16.4115 118.695 15.8163 118.695 14.8958V10.206C118.695 8.30145 118.194 7.34919 117.194 7.34919H116.711V7.11113L120.349 6.58739H120.426L120.757 8.77758C121.52 7.41266 122.58 6.73023 123.937 6.73023C124.582 6.73023 125.057 6.86511 125.362 7.13494C125.668 7.38885 125.82 7.65072 125.82 7.92055C125.82 8.19037 125.735 8.42048 125.566 8.61094C125.413 8.80139 125.192 8.89661 124.904 8.89661C124.752 8.89661 124.624 8.88076 124.523 8.849C124.421 8.81724 124.31 8.75378 124.192 8.65855C124.09 8.56332 124.022 8.49986 123.988 8.4681C123.971 8.43634 123.903 8.34111 123.785 8.18242C123.428 7.72214 123.089 7.49203 122.767 7.49203C122.36 7.49203 121.995 7.67453 121.673 8.03958C121.35 8.38872 121.113 8.83315 120.96 9.37274C120.79 10.0869 120.706 11.1344 120.706 12.5152C120.706 13.3405 120.722 14.2927 120.757 15.372C120.773 16.0544 120.951 16.5226 121.291 16.7765C121.647 17.0146 122.105 17.1495 122.665 17.1813V17.4193ZM134.985 15.4672C135.223 14.8958 135.341 13.888 135.341 12.4438C135.341 10.7773 135.189 9.57115 134.883 8.82519C134.392 7.65072 133.492 7.06352 132.186 7.06352C131.168 7.06352 130.328 7.58726 129.667 8.63474C129.005 9.68223 128.674 10.8805 128.674 12.2295C128.674 13.6738 128.997 14.9038 129.641 15.9195C130.286 16.9194 131.168 17.4193 132.288 17.4193C133.56 17.4193 134.459 16.7686 134.985 15.4672ZM139.311 17.3241L135.545 17.7288H135.469L135.29 16.4671C134.425 17.3399 133.306 17.7764 131.931 17.7764C130.235 17.7764 128.861 17.2765 127.809 16.2766C126.774 15.2767 126.257 13.9515 126.257 12.3009C126.257 10.6503 126.825 9.30928 127.962 8.27765C129.099 7.24601 130.447 6.73023 132.008 6.73023C133.433 6.73023 134.536 7.15079 135.316 7.99197V3.25448C135.316 2.27048 135.155 1.62771 134.832 1.32616C134.51 1.00874 133.976 0.834164 133.229 0.80242V0.564356L137.326 0.350098H137.428C137.394 1.93719 137.377 3.20687 137.377 4.15913V14.5149C137.377 14.8958 137.377 15.1736 137.377 15.3482C137.394 15.5069 137.428 15.7211 137.479 15.9909C137.547 16.2608 137.649 16.4591 137.784 16.5861C137.92 16.7131 138.115 16.8321 138.37 16.9432C138.624 17.0384 138.938 17.094 139.311 17.1098V17.3241ZM162.761 12.3247L163.168 12.3962C163.134 12.9517 162.999 13.523 162.761 14.1102C162.524 14.6816 162.159 15.2609 161.667 15.8481C161.192 16.4195 160.505 16.8876 159.606 17.2527C158.707 17.6177 157.663 17.8002 156.476 17.8002C153.49 17.8002 151.183 17.0384 149.554 15.5148C147.943 13.9912 147.137 12.0073 147.137 9.56319C147.137 6.73818 148.011 4.50829 149.758 2.87358C151.522 1.23887 153.813 0.421516 156.629 0.421516C157.426 0.421516 158.181 0.492935 158.893 0.635775C159.606 0.778614 160.174 0.921452 160.598 1.06429C161.022 1.20713 161.285 1.27855 161.387 1.27855C161.743 1.27855 162.032 1.05635 162.252 0.611969H162.507L162.736 6.11126H162.456C161.794 4.25436 160.955 2.90533 159.937 2.06416C158.919 1.20713 157.816 0.778614 156.629 0.778614C154.932 0.778614 153.465 1.55629 152.226 3.11165C150.988 4.667 150.369 6.65881 150.369 9.08706C150.369 11.4677 150.945 13.3802 152.099 14.8244C153.27 16.2687 154.873 16.9908 156.909 16.9908C158.656 16.9908 160.004 16.5702 160.955 15.7291C161.922 14.8879 162.524 13.7531 162.761 12.3247ZM169.806 17.4193H163.954V17.1813C164.683 17.1019 165.175 16.9352 165.43 16.6813C165.701 16.4115 165.837 15.8163 165.837 14.8958V10.206C165.837 8.30145 165.336 7.34919 164.335 7.34919H163.852V7.11113L167.491 6.58739H167.567L167.898 8.77758C168.661 7.41266 169.721 6.73023 171.079 6.73023C171.724 6.73023 172.198 6.86511 172.504 7.13494C172.809 7.38885 172.962 7.65072 172.962 7.92055C172.962 8.19037 172.877 8.42048 172.707 8.61094C172.555 8.80139 172.334 8.89661 172.046 8.89661C171.893 8.89661 171.766 8.88076 171.664 8.849C171.562 8.81724 171.452 8.75378 171.333 8.65855C171.231 8.56332 171.164 8.49986 171.13 8.4681C171.113 8.43634 171.045 8.34111 170.926 8.18242C170.57 7.72214 170.23 7.49203 169.908 7.49203C169.501 7.49203 169.136 7.67453 168.814 8.03958C168.492 8.38872 168.254 8.83315 168.101 9.37274C167.932 10.0869 167.847 11.1344 167.847 12.5152C167.847 13.3405 167.864 14.2927 167.898 15.372C167.915 16.0544 168.093 16.5226 168.432 16.7765C168.789 17.0146 169.247 17.1495 169.806 17.1813V17.4193ZM177.038 2.46887C176.817 2.67519 176.545 2.77836 176.223 2.77836C175.901 2.77836 175.621 2.66726 175.384 2.44507C175.146 2.22287 175.027 1.961 175.027 1.65945C175.027 1.3579 175.146 1.10397 175.384 0.897646C175.621 0.675451 175.901 0.564356 176.223 0.564356C176.545 0.564356 176.817 0.675451 177.038 0.897646C177.258 1.10397 177.368 1.3579 177.368 1.65945C177.368 1.97687 177.258 2.24668 177.038 2.46887ZM179.048 17.4193H173.144V17.1813C173.992 17.0702 174.544 16.8638 174.798 16.5623C175.053 16.2449 175.18 15.5148 175.18 14.3721V10.0393C175.18 9.99171 175.18 9.85683 175.18 9.63461C175.18 9.4124 175.18 9.26956 175.18 9.2061C175.18 9.12672 175.171 8.99184 175.155 8.80139C175.155 8.61094 175.137 8.47605 175.104 8.39668C175.07 8.3173 175.027 8.20623 174.976 8.06339C174.926 7.92055 174.849 7.81737 174.747 7.7539C174.662 7.69044 174.561 7.61902 174.442 7.53965C174.323 7.46027 174.179 7.40476 174.009 7.373C173.839 7.34124 173.653 7.32539 173.45 7.32539V7.08732L177.165 6.58739H177.241C177.224 9.57115 177.216 11.5471 177.216 12.5152C177.216 13.9277 177.224 14.9038 177.241 15.4434C177.241 15.8084 177.283 16.11 177.368 16.348C177.47 16.5702 177.623 16.7369 177.827 16.848C178.047 16.959 178.225 17.0305 178.361 17.0622C178.496 17.094 178.725 17.1336 179.048 17.1813V17.4193ZM185.732 17.1813V17.4193H179.956V17.1813C180.685 17.1019 181.186 16.8956 181.457 16.5623C181.746 16.229 181.89 15.499 181.89 14.3721V9.51558C181.89 8.07134 181.271 7.34919 180.032 7.34919V7.11113L183.595 6.65881H183.671L183.926 8.34907C184.757 7.25397 185.97 6.70642 187.565 6.70642C189.431 6.70642 190.601 7.26982 191.076 8.39668C191.891 7.26982 193.146 6.70642 194.842 6.70642C195.894 6.70642 196.776 6.92863 197.489 7.373C198.218 7.80152 198.583 8.46014 198.583 9.34894V15.1101C198.583 15.3005 198.592 15.483 198.609 15.6576C198.643 15.8163 198.668 15.9592 198.685 16.0862C198.719 16.1972 198.77 16.3084 198.838 16.4195C198.905 16.5147 198.956 16.5941 198.99 16.6575C199.024 16.721 199.092 16.7845 199.194 16.848C199.296 16.8956 199.363 16.9352 199.397 16.967C199.448 16.9988 199.541 17.0305 199.677 17.0622C199.813 17.094 199.898 17.1098 199.932 17.1098C199.966 17.1098 200.05 17.1257 200.186 17.1575C200.339 17.1733 200.424 17.1813 200.441 17.1813V17.4193H194.562V17.1575C194.885 17.1257 195.122 17.094 195.275 17.0622C195.428 17.0305 195.615 16.9511 195.835 16.8242C196.073 16.6972 196.242 16.4909 196.344 16.2052C196.446 15.9037 196.496 15.5228 196.496 15.0625C196.496 12.7295 196.488 11.071 196.471 10.0869C196.437 8.15066 195.631 7.18255 194.054 7.18255C193.443 7.18255 192.892 7.35715 192.4 7.70629C191.925 8.03958 191.611 8.57917 191.458 9.32513C191.322 9.97586 191.254 10.9519 191.254 12.2533C191.254 13.5547 191.263 14.507 191.28 15.1101C191.28 15.3005 191.289 15.4751 191.305 15.6338C191.339 15.7925 191.365 15.9354 191.382 16.0624C191.416 16.1734 191.467 16.2846 191.534 16.3956C191.602 16.4909 191.645 16.5702 191.662 16.6337C191.696 16.6972 191.763 16.7607 191.865 16.8242C191.984 16.8718 192.052 16.9114 192.069 16.9432C192.103 16.975 192.187 17.0067 192.323 17.0384C192.459 17.0702 192.535 17.094 192.552 17.1098C192.569 17.1098 192.654 17.1178 192.807 17.1336L193.061 17.1813V17.4193H187.234V17.1575C187.539 17.1257 187.768 17.094 187.921 17.0622C188.074 17.0305 188.26 16.9511 188.481 16.8242C188.701 16.6972 188.862 16.4909 188.964 16.2052C189.083 15.9037 189.142 15.5228 189.142 15.0625C189.159 14.3324 189.168 13.4754 189.168 12.4914V10.0869C189.168 8.15066 188.37 7.18255 186.776 7.18255C185.351 7.18255 184.469 7.92055 184.129 9.39655C183.977 10.0155 183.9 11.055 183.9 12.5152C183.9 13.3722 183.917 14.3403 183.951 15.4196C183.951 15.8639 184.044 16.221 184.231 16.4909C184.418 16.7448 184.613 16.9114 184.816 16.9908C185.037 17.0543 185.342 17.1178 185.732 17.1813ZM201.812 17.7764H201.634L201.405 14.0864L201.66 14.0626C201.863 14.9355 202.262 15.7211 202.856 16.4195C203.466 17.1178 204.204 17.4669 205.07 17.4669C205.68 17.4669 206.215 17.3082 206.673 16.9908C207.131 16.6734 207.36 16.221 207.36 15.6338C207.36 15.1259 207.156 14.6578 206.749 14.2293C206.342 13.7849 205.637 13.3326 204.637 12.8723C202.771 12.0153 201.838 10.9202 201.838 9.587C201.838 8.82519 202.177 8.15861 202.856 7.58726C203.551 7.00005 204.399 6.70642 205.4 6.70642C205.739 6.70642 206.172 6.77784 206.698 6.92068C207.241 7.06352 207.546 7.13494 207.614 7.13494C207.818 7.13494 207.979 7.0159 208.098 6.77784H208.327L208.556 9.84887H208.301C207.571 7.97612 206.596 7.03971 205.375 7.03971C204.798 7.03971 204.323 7.21431 203.95 7.56345C203.594 7.89674 203.416 8.24588 203.416 8.61094C203.416 9.16644 203.602 9.64257 203.975 10.0393C204.348 10.4202 205.027 10.817 206.011 11.2296C207.131 11.7058 207.945 12.2137 208.454 12.7533C208.98 13.277 209.243 13.9356 209.243 14.7292C209.243 15.6338 208.878 16.3718 208.149 16.9432C207.419 17.5145 206.41 17.8002 205.12 17.8002C204.594 17.8002 204.034 17.705 203.441 17.5145C202.847 17.3241 202.525 17.2289 202.474 17.2289C202.236 17.2289 202.016 17.4114 201.812 17.7764ZM222.791 12.2533C222.791 13.8245 222.146 15.1419 220.857 16.2052C219.567 17.2527 218.159 17.7764 216.632 17.7764C214.919 17.7764 213.46 17.2289 212.256 16.1338C211.051 15.0228 210.449 13.7214 210.449 12.2295C210.449 10.8011 211.043 9.53143 212.23 8.42048C213.417 7.29363 214.885 6.73023 216.632 6.73023C218.465 6.73023 219.949 7.27777 221.086 8.37287C222.222 9.46797 222.791 10.7615 222.791 12.2533ZM216.632 17.4193C217.888 17.4193 218.821 16.9114 219.432 15.8957C220.059 14.88 220.373 13.6659 220.373 12.2533C220.373 10.7932 220.017 9.56319 219.304 8.56332C218.592 7.56345 217.701 7.06352 216.632 7.06352C215.377 7.06352 214.435 7.5555 213.808 8.53952C213.18 9.52354 212.866 10.7535 212.866 12.2295C212.866 13.6738 213.223 14.9038 213.935 15.9195C214.648 16.9194 215.547 17.4193 216.632 17.4193ZM229.644 17.1813V17.4193H223.817V17.1813C224.546 17.1019 225.047 16.8956 225.318 16.5623C225.59 16.229 225.726 15.499 225.726 14.3721C225.726 13.9753 225.726 13.1976 225.726 12.0391C225.742 10.8646 225.751 10.0235 225.751 9.51558C225.751 8.07134 225.132 7.34919 223.893 7.34919V7.11113L227.456 6.58739H227.532L227.812 8.53952C228.152 7.98401 228.652 7.53965 229.314 7.20636C229.975 6.87307 230.739 6.70642 231.604 6.70642C232.656 6.70642 233.538 6.91272 234.25 7.32539C234.963 7.73805 235.319 8.37287 235.319 9.2299V15.1101C235.319 15.3323 235.328 15.5307 235.345 15.7053C235.361 15.8799 235.395 16.0306 235.446 16.1576C235.514 16.2846 235.565 16.3956 235.599 16.4909C235.65 16.5861 235.726 16.6734 235.828 16.7527C235.93 16.8162 236.006 16.8718 236.057 16.9194C236.108 16.967 236.201 17.0067 236.337 17.0384C236.473 17.0702 236.557 17.094 236.591 17.1098C236.642 17.1257 236.744 17.1495 236.897 17.1813C237.066 17.1971 237.168 17.2051 237.202 17.2051V17.4193H231.248V17.1575C231.57 17.1257 231.807 17.094 231.96 17.0622C232.113 17.0305 232.308 16.959 232.545 16.848C232.8 16.721 232.978 16.5067 233.08 16.2052C233.198 15.9037 233.258 15.5228 233.258 15.0625C233.258 13.1421 233.249 11.4677 233.232 10.0393C233.216 9.08707 233.02 8.37287 232.647 7.89674C232.274 7.42061 231.663 7.18255 230.815 7.18255C230.188 7.18255 229.61 7.373 229.085 7.7539C228.559 8.11896 228.203 8.68235 228.016 9.44416C227.846 10.1425 227.761 11.1662 227.761 12.5152C227.761 13.3722 227.778 14.3403 227.812 15.4196C227.812 15.8639 227.905 16.221 228.092 16.4909C228.296 16.7448 228.499 16.9114 228.703 16.9908C228.923 17.0543 229.237 17.1178 229.644 17.1813Z" fill="black"/>
</g>
<defs>
<clipPath id="clip0_1341_35960">
<rect width="236.47" height="18" fill="white" transform="translate(0.764648)"/>
</clipPath>
</defs>
</svg>
