<svg width="21" height="19" viewBox="0 0 21 19" fill="none" xmlns="http://www.w3.org/2000/svg">
<g clip-path="url(#clip0_25_7366)">
<path d="M9 0.929695C8.459 0.930895 7.9725 1.0784 7.5312 1.3359C7.2523 1.4988 6.7288 1.9543 5.875 2.7422C5.84 2.7745 5.0351 3.5431 4.625 3.9297C4.3767 3.9295 3.1169 3.929 3 3.9297C1.3753 3.9399 0.012 5.3115 0 6.92969V12.9297C0.0178 14.6132 1.3211 15.9452 3 15.9297C3.0757 15.929 4.34041 15.9293 4.59381 15.9297C4.99261 16.308 5.81061 17.0864 5.84381 17.1172C6.68301 17.8973 7.19881 18.3286 7.46881 18.4922C7.92241 18.7672 8.432 18.9362 9 18.9297C10.666 18.9105 12.02 17.5791 12 15.9297L11.969 9.9297L12 3.9297C11.998 2.2588 10.645 0.926095 9 0.929695ZM9 2.9297C9.544 2.9285 9.999 3.3747 10 3.9297L9.969 9.9297L10 15.9297C10.006 16.4709 9.571 16.9231 9 16.9297C8.824 16.9317 8.647 16.894 8.5 16.8047C8.408 16.7487 7.89331 16.2755 7.21881 15.6485C7.17901 15.6115 5.7751 14.2955 5.6875 14.2109C5.5011 14.0312 5.2589 13.9297 5 13.9297C4.9117 13.9297 3.1382 13.9284 3 13.9297C2.4403 13.9349 2.0062 13.5143 2 12.9297V6.92969C2.0039 6.41 2.472 5.93299 3 5.9297C3.1798 5.9286 4.8307 5.9296 5 5.9297C5.2581 5.9297 5.5012 5.82719 5.6875 5.64849C5.7757 5.56379 7.17631 4.2501 7.21881 4.2109C7.89591 3.586 8.443 3.106 8.531 3.0547C8.681 2.9673 8.83 2.9301 9 2.9297ZM15 6.92969C14.744 6.92969 14.477 7.0157 14.281 7.2109C13.891 7.6015 13.891 8.25789 14.281 8.64849L15.562 9.9297L14.281 11.2109C13.891 11.6015 13.891 12.2579 14.281 12.6485C14.672 13.039 15.328 13.039 15.719 12.6485L17 11.3672L18.281 12.6485C18.672 13.039 19.328 13.039 19.719 12.6485C20.109 12.2579 20.109 11.6015 19.719 11.2109L18.438 9.9297L19.719 8.64849C20.109 8.25789 20.109 7.6015 19.719 7.2109C19.523 7.0157 19.256 6.92969 19 6.92969C18.744 6.92969 18.477 7.0157 18.281 7.2109L17 8.49219L15.719 7.2109C15.523 7.0157 15.256 6.92969 15 6.92969Z" fill="#4169E1"/>
</g>
<defs>
<clipPath id="clip0_25_7366">
<rect width="21" height="19" fill="white"/>
</clipPath>
</defs>
</svg>
