<svg width="12" height="15" viewBox="0 0 12 15" fill="none" xmlns="http://www.w3.org/2000/svg">
<path d="M2.55362 0.000232659C1.15528 -0.0182673 0.0627791 1.06856 0.0277791 2.52623C0.000279086 3.68839 -0.00305913 5.22998 0.00194087 7.13523C0.00444087 8.23356 0.0269458 12.3286 0.0277791 12.5002C0.0402791 13.9252 1.15195 15.0002 2.55362 15.0002C2.96362 15.0002 3.39777 14.9144 3.85611 14.6352C4.37611 14.3194 5.55277 13.4636 7.26777 12.1619C7.33527 12.1102 10.6003 9.57939 10.7311 9.47939C11.4711 8.91439 11.7328 8.1269 11.6944 7.44856C11.6803 7.19273 11.6511 6.96606 11.5644 6.69273C11.4236 6.25023 11.1919 5.85773 10.8094 5.57315C10.3844 5.25748 7.39112 2.97773 7.34528 2.94289C5.55945 1.58415 4.41444 0.749732 3.83027 0.364816C3.4036 0.0837326 3.0486 -0.000434007 2.58027 0.000232659C2.5536 0.000232659 2.56862 0.000315992 2.55362 0.000232659Z" fill="#4169E1"/>
</svg>
