<svg width="5" height="6" viewBox="0 0 5 6" fill="none" xmlns="http://www.w3.org/2000/svg">
<path d="M1.21718 0.600073C0.769715 0.594153 0.420114 0.941938 0.408914 1.40839C0.400114 1.78028 0.399045 2.27359 0.400645 2.88327C0.401445 3.23474 0.408647 4.54514 0.408914 4.60007C0.412914 5.05607 0.768649 5.40007 1.21718 5.40007C1.34838 5.40007 1.48731 5.3726 1.63398 5.28327C1.80038 5.1822 2.17691 4.90834 2.72571 4.4918C2.74731 4.47527 3.79211 3.6654 3.83398 3.6334C4.07078 3.4526 4.15451 3.20061 4.14225 2.98354C4.13771 2.90167 4.12838 2.82914 4.10065 2.74167C4.05558 2.60007 3.98144 2.47447 3.85904 2.38341C3.72304 2.28239 2.76518 1.55287 2.75051 1.54172C2.17905 1.10693 1.81264 0.839913 1.62571 0.71674C1.48918 0.626793 1.37558 0.59986 1.22571 0.600073C1.21718 0.600073 1.22198 0.6001 1.21718 0.600073Z" fill="#FDFDFD"/>
</svg>
