<svg width="36" height="35" viewBox="0 0 36 35" fill="none" xmlns="http://www.w3.org/2000/svg">
<path d="M27.4828 11.6156H24.3547V8.19214H12.3344V11.6046H9.19531C8.64844 11.6046 8.21094 12.0421 8.21094 12.589V20.9671H12.3344V22.4L16.9062 26.9718H24.3547V21.0218H28.4781V12.6C28.4672 12.0531 28.0297 11.6156 27.4828 11.6156ZM13.4938 9.36245H23.1844V11.6156H13.4938V9.36245ZM25.5031 19.4031H24.3547V17.1062H23.1953V25.8125H18.4375C16.7094 25.8125 17.5406 21.7218 17.5406 21.7218C17.5406 21.7218 13.5484 22.6953 13.5047 20.8687V17.1171H12.3453V19.3703H11.1859V15.4546H25.5031V19.4031ZM26.3234 14.0328C25.8859 14.0328 25.5359 13.6828 25.5359 13.2453C25.5359 12.8078 25.8859 12.4578 26.3234 12.4578C26.7609 12.4578 27.1109 12.8078 27.1109 13.2453C27.1109 13.6828 26.7609 14.0328 26.3234 14.0328ZM21.8172 17.2703H15.1453V18.4296H21.8172V17.2703ZM15.1344 20.7156H21.8062V19.5562H15.1344V20.7156Z" fill="#2E2E2E"/>
</svg>
