<svg width="31" height="36" viewBox="0 0 31 36" fill="none" xmlns="http://www.w3.org/2000/svg">
<path d="M15.9844 0.5V5.5C24.2687 5.5 30.9844 12.2157 30.9844 20.5C30.9844 28.785 24.2687 35.5 15.9844 35.5C7.70004 35.5 0.984375 28.785 0.984375 20.5C0.984375 17.82 1.69721 15.2163 3.01554 12.948C3.47821 12.1522 4.51154 11.9125 5.30721 12.375C6.10304 12.8375 6.34288 13.8708 5.88021 14.6667C4.85554 16.4295 4.31771 18.4133 4.31771 20.5C4.31771 26.9433 9.54104 32.1667 15.9844 32.1667C22.4277 32.1667 27.651 26.9433 27.651 20.5C27.651 14.0567 22.4277 8.83333 15.9844 8.83333V13.8333L9.31771 7.16666L15.9844 0.5Z" fill="#FDFDFD"/>
</svg>
