<svg width="19" height="22" viewBox="0 0 19 22" fill="none" xmlns="http://www.w3.org/2000/svg">
<path d="M9.99072 0.5V3.5C14.9613 3.5 18.9907 7.52939 18.9907 12.5C18.9907 17.471 14.9613 21.5 9.99072 21.5C5.02012 21.5 0.990723 17.471 0.990723 12.5C0.990723 10.892 1.41842 9.3298 2.20942 7.9688C2.48702 7.4913 3.10702 7.3475 3.58442 7.62499C4.06192 7.90249 4.20582 8.52249 3.92822 8.99999C3.31342 10.0577 2.99072 11.248 2.99072 12.5C2.99072 16.366 6.12472 19.5 9.99072 19.5C13.8567 19.5 16.9907 16.366 16.9907 12.5C16.9907 8.63399 13.8567 5.5 9.99072 5.5V8.49999L5.99072 4.5L9.99072 0.5Z" fill="#606060"/>
</svg>
