<svg width="36" height="35" viewBox="0 0 36 35" fill="none" xmlns="http://www.w3.org/2000/svg">
<path fill-rule="evenodd" clip-rule="evenodd" d="M26.1769 22.6003C26.1769 22.2459 26.0522 21.944 25.805 21.6979L23.0444 18.9373C22.9272 18.8169 22.7866 18.7217 22.6312 18.6578C22.4758 18.5938 22.3089 18.5624 22.1409 18.5654C21.7691 18.5654 21.4519 18.7076 21.1861 18.9898C21.2123 19.0161 21.2955 19.0992 21.4377 19.2359C21.5798 19.3726 21.675 19.4678 21.722 19.5203C21.7723 19.575 21.838 19.6581 21.9222 19.7718C22.0765 19.9732 22.154 20.2229 22.1409 20.4762C22.1409 20.8317 22.0173 21.1325 21.7691 21.3807C21.5219 21.6279 21.2222 21.7526 20.8667 21.7526C20.7355 21.7526 20.6152 21.7362 20.5036 21.7056C20.3811 21.6688 20.2663 21.6102 20.1645 21.5328C20.0774 21.4707 19.9934 21.4043 19.913 21.3337C19.8159 21.2413 19.7211 21.1464 19.6286 21.0493L19.3814 20.7978C19.0894 21.0712 18.9439 21.3939 18.9439 21.7657C18.9439 22.1179 19.0675 22.4187 19.3158 22.667L22.0502 25.4145C22.2886 25.6529 22.5894 25.7732 22.9525 25.7732C23.3058 25.7732 23.6066 25.6573 23.8548 25.4276L25.8061 23.4895C25.9255 23.3745 26.0201 23.2363 26.0841 23.0834C26.148 22.9304 26.18 22.766 26.178 22.6003H26.1769ZM16.845 13.2421C16.845 12.8889 16.7214 12.5881 16.4731 12.3398L13.7388 9.59231C13.6217 9.472 13.4813 9.37694 13.3261 9.31299C13.1709 9.24903 13.0042 9.21753 12.8364 9.22043C12.4908 9.22043 12.1911 9.34074 11.933 9.57918L9.98281 11.5173C9.8634 11.6323 9.76881 11.7705 9.70485 11.9234C9.64089 12.0764 9.60893 12.2408 9.61094 12.4065C9.61094 12.7598 9.73453 13.0606 9.98281 13.3089L12.7434 16.0695C12.9841 16.3101 13.2838 16.4282 13.6458 16.4282C14.0177 16.4282 14.3348 16.2904 14.6006 16.017C14.5744 15.9896 14.4913 15.9076 14.3491 15.7709C14.2519 15.6777 14.1571 15.5822 14.0647 15.4843C13.9937 15.4039 13.9269 15.32 13.8645 15.2328C13.7102 15.0314 13.6327 14.7817 13.6458 14.5284C13.6458 14.1751 13.7694 13.8743 14.0177 13.6261C14.2648 13.3778 14.5645 13.2542 14.9189 13.2542C15.1719 13.2414 15.4211 13.3189 15.6222 13.4729C15.7381 13.5571 15.8223 13.6228 15.8738 13.672C15.9284 13.7201 16.0236 13.8142 16.1603 13.9564C16.297 14.0986 16.3791 14.1828 16.4053 14.2079C16.6973 13.9345 16.8428 13.6118 16.8428 13.24L16.845 13.2421ZM28.7253 22.6003C28.7253 23.6612 28.3491 24.5603 27.5966 25.2953L25.6453 27.2345C24.9125 27.9673 24.0134 28.3348 22.9514 28.3348C21.8795 28.3348 20.9772 27.9586 20.2433 27.2061L17.5089 24.4586C16.7761 23.7257 16.4086 22.8256 16.4086 21.7646C16.4086 20.6742 16.798 19.75 17.5767 18.9887L16.4086 17.8206C15.6473 18.5993 14.7264 18.9887 13.6469 18.9887C12.5859 18.9887 11.6814 18.6168 10.9388 17.8731L8.17813 15.1157C7.43438 14.3698 7.0625 13.4686 7.0625 12.4065C7.0625 11.3456 7.43875 10.4465 8.19125 9.71152L10.1425 7.7723C10.8753 7.03949 11.7744 6.6709 12.8364 6.6709C13.9061 6.6709 14.8084 7.04715 15.5434 7.79965L18.2778 10.5471C19.0106 11.28 19.3792 12.179 19.3792 13.2411C19.3792 14.3293 18.9898 15.2536 18.2111 16.0159L19.3792 17.184C20.1405 16.4053 21.0603 16.0159 22.1398 16.0159C23.2008 16.0159 24.1053 16.3878 24.848 17.1315L27.6086 19.8911C28.3523 20.6348 28.7242 21.5371 28.7242 22.5992L28.7253 22.6003Z" fill="#2E2E2E"/>
</svg>
