<svg width="36" height="35" viewBox="0 0 36 35" fill="none" xmlns="http://www.w3.org/2000/svg">
<path fill-rule="evenodd" clip-rule="evenodd" d="M31.1206 11.0644C30.2347 11.4581 29.2831 11.7228 28.2856 11.8409C29.3162 11.2243 30.0874 10.254 30.4556 9.11092C29.4866 9.68589 28.4265 10.0909 27.3209 10.3086C26.578 9.51371 25.5934 8.98655 24.5199 8.80906C23.4465 8.63156 22.3446 8.81368 21.3853 9.3271C20.4261 9.84051 19.6634 10.6565 19.2158 11.6481C18.7681 12.6397 18.6606 13.7514 18.91 14.8105C16.9477 14.7121 15.028 14.2022 13.2756 13.3137C11.5232 12.4253 9.97725 11.1782 8.73813 9.65342C8.29844 10.4069 8.06739 11.2639 8.06875 12.1362C8.06827 12.9487 8.2685 13.7488 8.65165 14.4653C9.03479 15.1818 9.58899 15.7925 10.265 16.2433C9.48126 16.2189 8.71473 16.0074 8.02937 15.6264V15.6887C8.02948 16.8284 8.42379 17.933 9.14545 18.8152C9.8671 19.6973 10.8717 20.3027 11.9887 20.5286C11.2612 20.7264 10.4979 20.7552 9.7575 20.6128C10.0728 21.5938 10.687 22.4517 11.514 23.0663C12.3411 23.6809 13.3396 24.0216 14.3698 24.0406C12.6214 25.4119 10.4626 26.1554 8.24047 26.1515C7.84687 26.1528 7.45353 26.1309 7.0625 26.0859C9.3195 27.5361 11.9463 28.3058 14.6291 28.303C23.7072 28.303 28.6728 20.7823 28.6728 14.2592C28.6728 14.0459 28.6673 13.8326 28.6575 13.6215C29.6239 12.923 30.458 12.0578 31.1206 11.0665" fill="#2E2E2E"/>
</svg>
