<svg width="21" height="19" viewBox="0 0 21 19" fill="none" xmlns="http://www.w3.org/2000/svg">
<g clip-path="url(#clip0_25_7368)">
<path d="M9 1.00001C8.4591 1.00121 7.9725 1.14871 7.5312 1.40621C7.2523 1.56911 6.7288 2.02461 5.875 2.81251C5.84 2.84481 5.0351 3.61341 4.625 4.00001C4.3767 3.99981 3.1169 3.99931 3 4.00001C1.3753 4.01021 0.011997 5.38181 0 7.00001V13C0.017797 14.6835 1.3211 16.0155 3 16C3.0757 15.9993 4.3404 15.9996 4.5938 16C4.9926 16.3783 5.8106 17.1567 5.8438 17.1875C6.683 17.9676 7.1988 18.3989 7.4688 18.5625C7.9224 18.8375 8.4323 19.0065 9 19C10.6657 18.9808 12.0198 17.6494 12 16L11.9688 10L12 4.00001C11.9984 2.32911 10.6455 0.996407 9 1.00001ZM9 3.00001C9.5443 2.99881 9.9995 3.44501 10 4.00001L9.9688 10L10 16C10.0065 16.5412 9.5709 16.9934 9 17C8.8236 17.002 8.6473 16.9643 8.5 16.875C8.4077 16.819 7.8933 16.3458 7.2188 15.7188C7.179 15.6818 5.7751 14.3658 5.6875 14.2812C5.5011 14.1015 5.259 14 5 14C4.9117 14 3.1382 13.9987 3 14C2.4403 14.0052 2.0062 13.5846 2 13V7.00001C2.0039 6.48031 2.4721 6.00331 3 6.00001C3.1798 5.99891 4.8307 5.99991 5 6.00001C5.2581 6.00001 5.5013 5.89751 5.6875 5.71881C5.7757 5.63411 7.1763 4.32041 7.2188 4.28121C7.8959 3.65631 8.4433 3.17631 8.5312 3.12501C8.681 3.03761 8.8304 3.00041 9 3.00001ZM15.125 6.00001C14.8715 5.96481 14.6265 6.02091 14.4062 6.18751C13.9658 6.52071 13.8543 7.15331 14.1875 7.59381C14.7059 8.27911 15 9.11221 15 10C15 10.8782 14.7038 11.7187 14.1875 12.4062C13.8559 12.8479 13.9646 13.4809 14.4062 13.8125C14.8479 14.1441 15.4809 14.0354 15.8125 13.5938C16.5866 12.5629 17 11.3153 17 10C17 8.67451 16.5924 7.43731 15.8125 6.40621C15.6459 6.18601 15.3785 6.03521 15.125 6.00001Z" fill="#5B88FF"/>
</g>
<defs>
<clipPath id="clip0_25_7368">
<rect width="21" height="19" fill="white"/>
</clipPath>
</defs>
</svg>
